<mxfile host="app.diagrams.net" modified="2021-10-08T08:45:09.691Z" agent="5.0 (Windows NT 10.0; Win64; x64) AppleWebKit/537.36 (KHTML, like Gecko) Chrome/94.0.4606.61 Safari/537.36 OPR/80.0.4170.16 (Edition Campaign 34)" etag="GzJouy0GmClmQNCsnm91" version="15.4.3" type="github">
  <diagram id="R2lEEEUBdFMjLlhIrx00" name="Page-1">
    <mxGraphModel dx="828" dy="483" grid="1" gridSize="10" guides="1" tooltips="1" connect="1" arrows="1" fold="1" page="1" pageScale="1" pageWidth="850" pageHeight="1100" background="#114B5F" math="0" shadow="0" extFonts="Permanent Marker^https://fonts.googleapis.com/css?family=Permanent+Marker">
      <root>
        <mxCell id="0" />
        <mxCell id="1" parent="0" />
        <mxCell id="i43CFVeRpQ-6sBmuHQsd-3" style="edgeStyle=orthogonalEdgeStyle;curved=0;rounded=1;sketch=0;orthogonalLoop=1;jettySize=auto;html=1;exitX=0.5;exitY=0;exitDx=0;exitDy=0;entryX=0.5;entryY=1;entryDx=0;entryDy=0;fontColor=#E4FDE1;strokeColor=#028090;fillColor=#F45B69;labelBackgroundColor=#114B5F;" parent="1" source="i43CFVeRpQ-6sBmuHQsd-1" edge="1">
          <mxGeometry relative="1" as="geometry">
            <mxPoint x="180" y="90" as="targetPoint" />
          </mxGeometry>
        </mxCell>
        <mxCell id="i43CFVeRpQ-6sBmuHQsd-11" style="rounded=1;sketch=0;orthogonalLoop=1;jettySize=auto;html=1;exitX=0;exitY=1;exitDx=0;exitDy=0;fontColor=#E4FDE1;strokeColor=#028090;fillColor=#F45B69;labelBackgroundColor=#114B5F;" parent="1" source="i43CFVeRpQ-6sBmuHQsd-1" target="i43CFVeRpQ-6sBmuHQsd-10" edge="1">
          <mxGeometry relative="1" as="geometry" />
        </mxCell>
        <mxCell id="i43CFVeRpQ-6sBmuHQsd-15" style="rounded=1;sketch=0;orthogonalLoop=1;jettySize=auto;html=1;exitX=0.75;exitY=1;exitDx=0;exitDy=0;entryX=0;entryY=0.5;entryDx=0;entryDy=0;fontColor=#E4FDE1;strokeColor=#028090;fillColor=#F45B69;labelBackgroundColor=#114B5F;" parent="1" source="i43CFVeRpQ-6sBmuHQsd-1" target="i43CFVeRpQ-6sBmuHQsd-12" edge="1">
          <mxGeometry relative="1" as="geometry" />
        </mxCell>
        <mxCell id="i43CFVeRpQ-6sBmuHQsd-1" value="university" style="whiteSpace=wrap;html=1;align=center;fillColor=#F45B69;strokeColor=#028090;fontColor=#E4FDE1;" parent="1" vertex="1">
          <mxGeometry x="130" y="120" width="100" height="40" as="geometry" />
        </mxCell>
        <mxCell id="i43CFVeRpQ-6sBmuHQsd-7" style="rounded=1;sketch=0;orthogonalLoop=1;jettySize=auto;html=1;exitX=1;exitY=0;exitDx=0;exitDy=0;entryX=0;entryY=0.5;entryDx=0;entryDy=0;fontColor=#E4FDE1;strokeColor=#028090;fillColor=#F45B69;labelBackgroundColor=#114B5F;" parent="1" source="i43CFVeRpQ-6sBmuHQsd-4" target="i43CFVeRpQ-6sBmuHQsd-6" edge="1">
          <mxGeometry relative="1" as="geometry" />
        </mxCell>
        <mxCell id="i43CFVeRpQ-6sBmuHQsd-9" style="rounded=1;sketch=0;orthogonalLoop=1;jettySize=auto;html=1;exitX=1;exitY=1;exitDx=0;exitDy=0;entryX=0;entryY=0.5;entryDx=0;entryDy=0;fontColor=#E4FDE1;strokeColor=#028090;fillColor=#F45B69;labelBackgroundColor=#114B5F;" parent="1" source="i43CFVeRpQ-6sBmuHQsd-4" target="i43CFVeRpQ-6sBmuHQsd-8" edge="1">
          <mxGeometry relative="1" as="geometry" />
        </mxCell>
        <mxCell id="i43CFVeRpQ-6sBmuHQsd-4" value="adress" style="ellipse;whiteSpace=wrap;html=1;align=center;rounded=0;sketch=0;fontColor=#E4FDE1;strokeColor=#028090;fillColor=#F45B69;" parent="1" vertex="1">
          <mxGeometry x="130" y="50" width="100" height="40" as="geometry" />
        </mxCell>
        <mxCell id="i43CFVeRpQ-6sBmuHQsd-6" value="street" style="ellipse;whiteSpace=wrap;html=1;align=center;rounded=0;sketch=0;fontColor=#E4FDE1;strokeColor=#028090;fillColor=#F45B69;" parent="1" vertex="1">
          <mxGeometry x="270" y="20" width="100" height="40" as="geometry" />
        </mxCell>
        <mxCell id="i43CFVeRpQ-6sBmuHQsd-8" value="city" style="ellipse;whiteSpace=wrap;html=1;align=center;rounded=0;sketch=0;fontColor=#E4FDE1;strokeColor=#028090;fillColor=#F45B69;" parent="1" vertex="1">
          <mxGeometry x="270" y="80" width="100" height="40" as="geometry" />
        </mxCell>
        <mxCell id="i43CFVeRpQ-6sBmuHQsd-10" value="name" style="ellipse;whiteSpace=wrap;html=1;align=center;rounded=0;sketch=0;fontColor=#E4FDE1;strokeColor=#028090;fillColor=#F45B69;" parent="1" vertex="1">
          <mxGeometry x="40" y="180" width="100" height="40" as="geometry" />
        </mxCell>
        <mxCell id="i43CFVeRpQ-6sBmuHQsd-12" value="university_ID" style="ellipse;whiteSpace=wrap;html=1;align=center;fontStyle=4;rounded=0;sketch=0;fontColor=#E4FDE1;strokeColor=#028090;fillColor=#F45B69;" parent="1" vertex="1">
          <mxGeometry x="240" y="180" width="100" height="40" as="geometry" />
        </mxCell>
        <mxCell id="i43CFVeRpQ-6sBmuHQsd-13" value="have" style="rhombus;whiteSpace=wrap;html=1;fontColor=#E4FDE1;strokeColor=#028090;fillColor=#F45B69;" parent="1" vertex="1">
          <mxGeometry x="385" y="100" width="80" height="80" as="geometry" />
        </mxCell>
        <mxCell id="i43CFVeRpQ-6sBmuHQsd-16" value="have" style="rhombus;whiteSpace=wrap;html=1;fontColor=#E4FDE1;strokeColor=#028090;fillColor=#F45B69;" parent="1" vertex="1">
          <mxGeometry x="140" y="230" width="80" height="80" as="geometry" />
        </mxCell>
        <mxCell id="i43CFVeRpQ-6sBmuHQsd-62" style="edgeStyle=none;rounded=1;sketch=0;orthogonalLoop=1;jettySize=auto;html=1;exitX=0;exitY=0;exitDx=0;exitDy=0;entryX=1;entryY=1;entryDx=0;entryDy=0;fontColor=#E4FDE1;strokeColor=#028090;fillColor=#F45B69;labelBackgroundColor=#114B5F;" parent="1" source="i43CFVeRpQ-6sBmuHQsd-20" target="i43CFVeRpQ-6sBmuHQsd-61" edge="1">
          <mxGeometry relative="1" as="geometry" />
        </mxCell>
        <mxCell id="i43CFVeRpQ-6sBmuHQsd-64" style="edgeStyle=none;rounded=1;sketch=0;orthogonalLoop=1;jettySize=auto;html=1;exitX=1;exitY=0;exitDx=0;exitDy=0;entryX=0;entryY=1;entryDx=0;entryDy=0;fontColor=#E4FDE1;strokeColor=#028090;fillColor=#F45B69;labelBackgroundColor=#114B5F;" parent="1" source="i43CFVeRpQ-6sBmuHQsd-20" target="i43CFVeRpQ-6sBmuHQsd-63" edge="1">
          <mxGeometry relative="1" as="geometry" />
        </mxCell>
        <mxCell id="2n3zswuo5XEEiu-ZvMk_-3" style="edgeStyle=orthogonalEdgeStyle;rounded=0;orthogonalLoop=1;jettySize=auto;html=1;exitX=0.5;exitY=0;exitDx=0;exitDy=0;entryX=0.5;entryY=1;entryDx=0;entryDy=0;labelBackgroundColor=#114B5F;strokeColor=#028090;fontColor=#E4FDE1;" edge="1" parent="1" source="i43CFVeRpQ-6sBmuHQsd-20" target="2n3zswuo5XEEiu-ZvMk_-2">
          <mxGeometry relative="1" as="geometry" />
        </mxCell>
        <mxCell id="i43CFVeRpQ-6sBmuHQsd-20" value="office_of_register" style="whiteSpace=wrap;html=1;align=center;rounded=0;sketch=0;fontColor=#E4FDE1;strokeColor=#028090;fillColor=#F45B69;" parent="1" vertex="1">
          <mxGeometry x="620" y="120" width="100" height="40" as="geometry" />
        </mxCell>
        <mxCell id="i43CFVeRpQ-6sBmuHQsd-22" value="" style="edgeStyle=entityRelationEdgeStyle;fontSize=12;html=1;endArrow=ERmandOne;rounded=1;sketch=0;fontColor=#E4FDE1;strokeColor=#028090;fillColor=#F45B69;curved=0;exitX=1;exitY=0.5;exitDx=0;exitDy=0;labelBackgroundColor=#114B5F;" parent="1" source="i43CFVeRpQ-6sBmuHQsd-13" edge="1">
          <mxGeometry width="100" height="100" relative="1" as="geometry">
            <mxPoint x="520" y="240" as="sourcePoint" />
            <mxPoint x="620" y="140" as="targetPoint" />
          </mxGeometry>
        </mxCell>
        <mxCell id="i43CFVeRpQ-6sBmuHQsd-23" value="" style="edgeStyle=entityRelationEdgeStyle;fontSize=12;html=1;endArrow=ERmandOne;rounded=1;sketch=0;fontColor=#E4FDE1;strokeColor=#028090;fillColor=#F45B69;curved=0;entryX=1;entryY=0.5;entryDx=0;entryDy=0;labelBackgroundColor=#114B5F;" parent="1" target="i43CFVeRpQ-6sBmuHQsd-1" edge="1">
          <mxGeometry width="100" height="100" relative="1" as="geometry">
            <mxPoint x="360" y="140" as="sourcePoint" />
            <mxPoint x="460" y="230" as="targetPoint" />
          </mxGeometry>
        </mxCell>
        <mxCell id="i43CFVeRpQ-6sBmuHQsd-29" value="have" style="rhombus;whiteSpace=wrap;html=1;rounded=0;fontColor=#E4FDE1;strokeColor=#028090;fillColor=#F45B69;sketch=0;" parent="1" vertex="1">
          <mxGeometry x="630" y="190" width="80" height="80" as="geometry" />
        </mxCell>
        <mxCell id="i43CFVeRpQ-6sBmuHQsd-32" value="" style="fontSize=12;html=1;endArrow=ERmandOne;rounded=1;sketch=0;fontColor=#E4FDE1;strokeColor=#028090;fillColor=#F45B69;entryX=0.5;entryY=1;entryDx=0;entryDy=0;labelBackgroundColor=#114B5F;" parent="1" source="i43CFVeRpQ-6sBmuHQsd-29" target="i43CFVeRpQ-6sBmuHQsd-20" edge="1">
          <mxGeometry width="100" height="100" relative="1" as="geometry">
            <mxPoint x="370" y="300" as="sourcePoint" />
            <mxPoint x="180" y="210" as="targetPoint" />
          </mxGeometry>
        </mxCell>
        <mxCell id="i43CFVeRpQ-6sBmuHQsd-33" value="" style="fontSize=12;html=1;endArrow=ERmandOne;rounded=1;sketch=0;fontColor=#E4FDE1;strokeColor=#028090;fillColor=#F45B69;entryX=0.5;entryY=1;entryDx=0;entryDy=0;labelBackgroundColor=#114B5F;" parent="1" source="i43CFVeRpQ-6sBmuHQsd-16" target="i43CFVeRpQ-6sBmuHQsd-1" edge="1">
          <mxGeometry width="100" height="100" relative="1" as="geometry">
            <mxPoint x="370" y="300" as="sourcePoint" />
            <mxPoint x="470" y="200" as="targetPoint" />
          </mxGeometry>
        </mxCell>
        <mxCell id="i43CFVeRpQ-6sBmuHQsd-35" value="" style="fontSize=12;html=1;endArrow=ERmany;rounded=1;sketch=0;fontColor=#E4FDE1;strokeColor=#028090;fillColor=#F45B69;exitX=0.5;exitY=1;exitDx=0;exitDy=0;entryX=0.5;entryY=0;entryDx=0;entryDy=0;labelBackgroundColor=#114B5F;" parent="1" source="i43CFVeRpQ-6sBmuHQsd-16" target="i43CFVeRpQ-6sBmuHQsd-36" edge="1">
          <mxGeometry width="100" height="100" relative="1" as="geometry">
            <mxPoint x="370" y="400" as="sourcePoint" />
            <mxPoint x="180" y="410" as="targetPoint" />
          </mxGeometry>
        </mxCell>
        <mxCell id="i43CFVeRpQ-6sBmuHQsd-38" style="edgeStyle=none;rounded=1;sketch=0;orthogonalLoop=1;jettySize=auto;html=1;exitX=0;exitY=1;exitDx=0;exitDy=0;entryX=0.5;entryY=0;entryDx=0;entryDy=0;fontColor=#E4FDE1;strokeColor=#028090;fillColor=#F45B69;labelBackgroundColor=#114B5F;" parent="1" source="i43CFVeRpQ-6sBmuHQsd-36" target="i43CFVeRpQ-6sBmuHQsd-37" edge="1">
          <mxGeometry relative="1" as="geometry" />
        </mxCell>
        <mxCell id="i43CFVeRpQ-6sBmuHQsd-50" style="edgeStyle=none;rounded=1;sketch=0;orthogonalLoop=1;jettySize=auto;html=1;exitX=0.5;exitY=1;exitDx=0;exitDy=0;fontColor=#E4FDE1;strokeColor=#028090;fillColor=#F45B69;labelBackgroundColor=#114B5F;" parent="1" source="i43CFVeRpQ-6sBmuHQsd-36" target="i43CFVeRpQ-6sBmuHQsd-48" edge="1">
          <mxGeometry relative="1" as="geometry" />
        </mxCell>
        <mxCell id="i43CFVeRpQ-6sBmuHQsd-51" style="edgeStyle=none;rounded=1;sketch=0;orthogonalLoop=1;jettySize=auto;html=1;exitX=1;exitY=1;exitDx=0;exitDy=0;entryX=0;entryY=0.5;entryDx=0;entryDy=0;fontColor=#E4FDE1;strokeColor=#028090;fillColor=#F45B69;labelBackgroundColor=#114B5F;" parent="1" source="i43CFVeRpQ-6sBmuHQsd-36" target="i43CFVeRpQ-6sBmuHQsd-49" edge="1">
          <mxGeometry relative="1" as="geometry" />
        </mxCell>
        <mxCell id="i43CFVeRpQ-6sBmuHQsd-54" style="edgeStyle=none;rounded=1;sketch=0;orthogonalLoop=1;jettySize=auto;html=1;exitX=0;exitY=0.5;exitDx=0;exitDy=0;entryX=0.94;entryY=0.85;entryDx=0;entryDy=0;entryPerimeter=0;fontColor=#E4FDE1;strokeColor=#028090;fillColor=#F45B69;labelBackgroundColor=#114B5F;" parent="1" source="i43CFVeRpQ-6sBmuHQsd-36" target="i43CFVeRpQ-6sBmuHQsd-53" edge="1">
          <mxGeometry relative="1" as="geometry" />
        </mxCell>
        <mxCell id="i43CFVeRpQ-6sBmuHQsd-59" style="edgeStyle=none;rounded=1;sketch=0;orthogonalLoop=1;jettySize=auto;html=1;exitX=1;exitY=0;exitDx=0;exitDy=0;fontColor=#E4FDE1;strokeColor=#028090;fillColor=#F45B69;labelBackgroundColor=#114B5F;" parent="1" source="i43CFVeRpQ-6sBmuHQsd-36" target="i43CFVeRpQ-6sBmuHQsd-58" edge="1">
          <mxGeometry relative="1" as="geometry" />
        </mxCell>
        <mxCell id="i43CFVeRpQ-6sBmuHQsd-36" value="dormitory" style="whiteSpace=wrap;html=1;align=center;rounded=0;sketch=0;fontColor=#E4FDE1;strokeColor=#028090;fillColor=#F45B69;" parent="1" vertex="1">
          <mxGeometry x="130" y="360" width="100" height="40" as="geometry" />
        </mxCell>
        <mxCell id="i43CFVeRpQ-6sBmuHQsd-43" style="edgeStyle=none;rounded=1;sketch=0;orthogonalLoop=1;jettySize=auto;html=1;exitX=1;exitY=1;exitDx=0;exitDy=0;entryX=0;entryY=0;entryDx=0;entryDy=0;fontColor=#E4FDE1;strokeColor=#028090;fillColor=#F45B69;labelBackgroundColor=#114B5F;" parent="1" source="i43CFVeRpQ-6sBmuHQsd-37" target="i43CFVeRpQ-6sBmuHQsd-42" edge="1">
          <mxGeometry relative="1" as="geometry" />
        </mxCell>
        <mxCell id="i43CFVeRpQ-6sBmuHQsd-45" style="edgeStyle=none;rounded=1;sketch=0;orthogonalLoop=1;jettySize=auto;html=1;exitX=0.5;exitY=1;exitDx=0;exitDy=0;entryX=0.5;entryY=0;entryDx=0;entryDy=0;fontColor=#E4FDE1;strokeColor=#028090;fillColor=#F45B69;labelBackgroundColor=#114B5F;" parent="1" source="i43CFVeRpQ-6sBmuHQsd-37" target="i43CFVeRpQ-6sBmuHQsd-44" edge="1">
          <mxGeometry relative="1" as="geometry" />
        </mxCell>
        <mxCell id="i43CFVeRpQ-6sBmuHQsd-37" value="adress" style="ellipse;whiteSpace=wrap;html=1;align=center;rounded=0;sketch=0;fontColor=#E4FDE1;strokeColor=#028090;fillColor=#F45B69;" parent="1" vertex="1">
          <mxGeometry x="30" y="440" width="100" height="40" as="geometry" />
        </mxCell>
        <mxCell id="i43CFVeRpQ-6sBmuHQsd-42" value="street" style="ellipse;whiteSpace=wrap;html=1;align=center;rounded=0;sketch=0;fontColor=#E4FDE1;strokeColor=#028090;fillColor=#F45B69;" parent="1" vertex="1">
          <mxGeometry x="120" y="490" width="100" height="40" as="geometry" />
        </mxCell>
        <mxCell id="i43CFVeRpQ-6sBmuHQsd-44" value="city" style="ellipse;whiteSpace=wrap;html=1;align=center;rounded=0;sketch=0;fontColor=#E4FDE1;strokeColor=#028090;fillColor=#F45B69;" parent="1" vertex="1">
          <mxGeometry y="520" width="100" height="40" as="geometry" />
        </mxCell>
        <mxCell id="i43CFVeRpQ-6sBmuHQsd-48" value="dorm_ID" style="ellipse;whiteSpace=wrap;html=1;align=center;fontStyle=4;rounded=0;sketch=0;fontColor=#E4FDE1;strokeColor=#028090;fillColor=#F45B69;" parent="1" vertex="1">
          <mxGeometry x="170.00449892963513" y="440.001469958609" width="100" height="40" as="geometry" />
        </mxCell>
        <mxCell id="i43CFVeRpQ-6sBmuHQsd-49" value="name" style="ellipse;whiteSpace=wrap;html=1;align=center;rounded=0;sketch=0;fontColor=#E4FDE1;strokeColor=#028090;fillColor=#F45B69;" parent="1" vertex="1">
          <mxGeometry x="250" y="380" width="100" height="40" as="geometry" />
        </mxCell>
        <mxCell id="i43CFVeRpQ-6sBmuHQsd-53" value="price" style="ellipse;whiteSpace=wrap;html=1;align=center;rounded=0;sketch=0;fontColor=#E4FDE1;strokeColor=#028090;fillColor=#F45B69;" parent="1" vertex="1">
          <mxGeometry x="10" y="330" width="100" height="40" as="geometry" />
        </mxCell>
        <mxCell id="i43CFVeRpQ-6sBmuHQsd-58" value="&lt;span style=&quot;border-bottom: 1px dotted&quot;&gt;student_ID&lt;/span&gt;" style="ellipse;whiteSpace=wrap;html=1;align=center;rounded=0;sketch=0;fontColor=#E4FDE1;strokeColor=#028090;fillColor=#F45B69;" parent="1" vertex="1">
          <mxGeometry x="240" y="300" width="100" height="40" as="geometry" />
        </mxCell>
        <mxCell id="i43CFVeRpQ-6sBmuHQsd-61" value="faculty_ID" style="ellipse;whiteSpace=wrap;html=1;align=center;fontStyle=4;rounded=0;sketch=0;fontColor=#E4FDE1;strokeColor=#028090;fillColor=#F45B69;" parent="1" vertex="1">
          <mxGeometry x="500" y="70" width="100" height="40" as="geometry" />
        </mxCell>
        <mxCell id="i43CFVeRpQ-6sBmuHQsd-63" value="dept_name" style="ellipse;whiteSpace=wrap;html=1;align=center;fontStyle=4;rounded=0;sketch=0;fontColor=#E4FDE1;strokeColor=#028090;fillColor=#F45B69;" parent="1" vertex="1">
          <mxGeometry x="740" y="80" width="100" height="40" as="geometry" />
        </mxCell>
        <mxCell id="i43CFVeRpQ-6sBmuHQsd-69" style="edgeStyle=none;rounded=1;sketch=0;orthogonalLoop=1;jettySize=auto;html=1;exitX=0;exitY=0;exitDx=0;exitDy=0;entryX=1;entryY=1;entryDx=0;entryDy=0;fontColor=#E4FDE1;strokeColor=#028090;fillColor=#F45B69;labelBackgroundColor=#114B5F;" parent="1" source="i43CFVeRpQ-6sBmuHQsd-65" target="i43CFVeRpQ-6sBmuHQsd-68" edge="1">
          <mxGeometry relative="1" as="geometry" />
        </mxCell>
        <mxCell id="i43CFVeRpQ-6sBmuHQsd-71" style="edgeStyle=none;rounded=1;sketch=0;orthogonalLoop=1;jettySize=auto;html=1;exitX=1;exitY=0;exitDx=0;exitDy=0;entryX=0;entryY=1;entryDx=0;entryDy=0;fontColor=#E4FDE1;strokeColor=#028090;fillColor=#F45B69;labelBackgroundColor=#114B5F;" parent="1" source="i43CFVeRpQ-6sBmuHQsd-65" target="i43CFVeRpQ-6sBmuHQsd-70" edge="1">
          <mxGeometry relative="1" as="geometry" />
        </mxCell>
        <mxCell id="i43CFVeRpQ-6sBmuHQsd-81" style="edgeStyle=none;rounded=1;sketch=0;orthogonalLoop=1;jettySize=auto;html=1;exitX=0;exitY=0.5;exitDx=0;exitDy=0;entryX=1;entryY=0;entryDx=0;entryDy=0;fontColor=#E4FDE1;strokeColor=#028090;fillColor=#F45B69;labelBackgroundColor=#114B5F;" parent="1" source="i43CFVeRpQ-6sBmuHQsd-65" target="i43CFVeRpQ-6sBmuHQsd-72" edge="1">
          <mxGeometry relative="1" as="geometry" />
        </mxCell>
        <mxCell id="i43CFVeRpQ-6sBmuHQsd-65" value="teacher" style="whiteSpace=wrap;html=1;align=center;rounded=0;sketch=0;fontColor=#E4FDE1;strokeColor=#028090;fillColor=#F45B69;" parent="1" vertex="1">
          <mxGeometry x="620" y="310" width="100" height="40" as="geometry" />
        </mxCell>
        <mxCell id="i43CFVeRpQ-6sBmuHQsd-66" value="" style="fontSize=12;html=1;endArrow=ERmany;rounded=1;sketch=0;fontColor=#E4FDE1;strokeColor=#028090;fillColor=#F45B69;entryX=0.5;entryY=0;entryDx=0;entryDy=0;exitX=0.5;exitY=1;exitDx=0;exitDy=0;labelBackgroundColor=#114B5F;" parent="1" source="i43CFVeRpQ-6sBmuHQsd-29" target="i43CFVeRpQ-6sBmuHQsd-65" edge="1">
          <mxGeometry width="100" height="100" relative="1" as="geometry">
            <mxPoint x="480" y="360" as="sourcePoint" />
            <mxPoint x="580" y="260" as="targetPoint" />
          </mxGeometry>
        </mxCell>
        <mxCell id="i43CFVeRpQ-6sBmuHQsd-68" value="teacher_ID" style="ellipse;whiteSpace=wrap;html=1;align=center;fontStyle=4;rounded=0;sketch=0;fontColor=#E4FDE1;strokeColor=#028090;fillColor=#F45B69;" parent="1" vertex="1">
          <mxGeometry x="490" y="260" width="100" height="40" as="geometry" />
        </mxCell>
        <mxCell id="i43CFVeRpQ-6sBmuHQsd-70" value="number" style="ellipse;shape=doubleEllipse;margin=3;whiteSpace=wrap;html=1;align=center;rounded=0;sketch=0;fontColor=#E4FDE1;strokeColor=#028090;fillColor=#F45B69;" parent="1" vertex="1">
          <mxGeometry x="730" y="260" width="100" height="40" as="geometry" />
        </mxCell>
        <mxCell id="i43CFVeRpQ-6sBmuHQsd-78" style="edgeStyle=none;rounded=1;sketch=0;orthogonalLoop=1;jettySize=auto;html=1;exitX=0;exitY=1;exitDx=0;exitDy=0;entryX=0.72;entryY=0;entryDx=0;entryDy=0;entryPerimeter=0;fontColor=#E4FDE1;strokeColor=#028090;fillColor=#F45B69;labelBackgroundColor=#114B5F;" parent="1" source="i43CFVeRpQ-6sBmuHQsd-72" target="i43CFVeRpQ-6sBmuHQsd-75" edge="1">
          <mxGeometry relative="1" as="geometry" />
        </mxCell>
        <mxCell id="i43CFVeRpQ-6sBmuHQsd-83" style="edgeStyle=none;rounded=1;sketch=0;orthogonalLoop=1;jettySize=auto;html=1;exitX=0.5;exitY=1;exitDx=0;exitDy=0;entryX=0.5;entryY=0;entryDx=0;entryDy=0;fontColor=#E4FDE1;strokeColor=#028090;fillColor=#F45B69;labelBackgroundColor=#114B5F;" parent="1" source="i43CFVeRpQ-6sBmuHQsd-72" target="i43CFVeRpQ-6sBmuHQsd-76" edge="1">
          <mxGeometry relative="1" as="geometry" />
        </mxCell>
        <mxCell id="i43CFVeRpQ-6sBmuHQsd-72" value="name" style="ellipse;whiteSpace=wrap;html=1;align=center;rounded=0;sketch=0;fontColor=#E4FDE1;strokeColor=#028090;fillColor=#F45B69;" parent="1" vertex="1">
          <mxGeometry x="480" y="330" width="100" height="40" as="geometry" />
        </mxCell>
        <mxCell id="i43CFVeRpQ-6sBmuHQsd-75" value="lastname" style="ellipse;whiteSpace=wrap;html=1;align=center;rounded=0;sketch=0;fontColor=#E4FDE1;strokeColor=#028090;fillColor=#F45B69;" parent="1" vertex="1">
          <mxGeometry x="390" y="400" width="100" height="40" as="geometry" />
        </mxCell>
        <mxCell id="i43CFVeRpQ-6sBmuHQsd-76" value="firstname" style="ellipse;whiteSpace=wrap;html=1;align=center;rounded=0;sketch=0;fontColor=#E4FDE1;strokeColor=#028090;fillColor=#F45B69;" parent="1" vertex="1">
          <mxGeometry x="520" y="400" width="100" height="40" as="geometry" />
        </mxCell>
        <mxCell id="i43CFVeRpQ-6sBmuHQsd-79" value="teaches" style="rhombus;whiteSpace=wrap;html=1;rounded=0;fontColor=#E4FDE1;strokeColor=#028090;fillColor=#F45B69;sketch=0;" parent="1" vertex="1">
          <mxGeometry x="630" y="410" width="80" height="80" as="geometry" />
        </mxCell>
        <mxCell id="i43CFVeRpQ-6sBmuHQsd-80" style="edgeStyle=none;rounded=1;sketch=0;orthogonalLoop=1;jettySize=auto;html=1;exitX=1;exitY=0.5;exitDx=0;exitDy=0;fontColor=#E4FDE1;strokeColor=#028090;fillColor=#F45B69;labelBackgroundColor=#114B5F;" parent="1" source="i43CFVeRpQ-6sBmuHQsd-79" target="i43CFVeRpQ-6sBmuHQsd-79" edge="1">
          <mxGeometry relative="1" as="geometry" />
        </mxCell>
        <mxCell id="2n3zswuo5XEEiu-ZvMk_-5" style="edgeStyle=none;rounded=1;sketch=0;orthogonalLoop=1;jettySize=auto;html=1;exitX=1;exitY=0.5;exitDx=0;exitDy=0;entryX=0;entryY=1;entryDx=0;entryDy=0;fontColor=#E4FDE1;strokeColor=#028090;fillColor=#F45B69;" edge="1" parent="1" source="i43CFVeRpQ-6sBmuHQsd-85" target="i43CFVeRpQ-6sBmuHQsd-95">
          <mxGeometry relative="1" as="geometry" />
        </mxCell>
        <mxCell id="2n3zswuo5XEEiu-ZvMk_-6" style="edgeStyle=none;rounded=1;sketch=0;orthogonalLoop=1;jettySize=auto;html=1;exitX=1;exitY=0.75;exitDx=0;exitDy=0;entryX=0;entryY=0;entryDx=0;entryDy=0;fontColor=#E4FDE1;strokeColor=#028090;fillColor=#F45B69;" edge="1" parent="1" source="i43CFVeRpQ-6sBmuHQsd-85" target="i43CFVeRpQ-6sBmuHQsd-96">
          <mxGeometry relative="1" as="geometry" />
        </mxCell>
        <mxCell id="2n3zswuo5XEEiu-ZvMk_-7" style="edgeStyle=none;rounded=1;sketch=0;orthogonalLoop=1;jettySize=auto;html=1;exitX=0.5;exitY=1;exitDx=0;exitDy=0;entryX=0.5;entryY=0;entryDx=0;entryDy=0;fontColor=#E4FDE1;strokeColor=#028090;fillColor=#F45B69;" edge="1" parent="1" source="i43CFVeRpQ-6sBmuHQsd-85" target="i43CFVeRpQ-6sBmuHQsd-89">
          <mxGeometry relative="1" as="geometry" />
        </mxCell>
        <mxCell id="2n3zswuo5XEEiu-ZvMk_-35" style="edgeStyle=none;rounded=1;sketch=0;orthogonalLoop=1;jettySize=auto;html=1;exitX=0;exitY=0;exitDx=0;exitDy=0;entryX=1;entryY=1;entryDx=0;entryDy=0;fontColor=#E4FDE1;strokeColor=#028090;fillColor=#F45B69;" edge="1" parent="1" source="i43CFVeRpQ-6sBmuHQsd-85" target="2n3zswuo5XEEiu-ZvMk_-34">
          <mxGeometry relative="1" as="geometry" />
        </mxCell>
        <mxCell id="i43CFVeRpQ-6sBmuHQsd-85" value="course" style="whiteSpace=wrap;html=1;align=center;rounded=0;sketch=0;fontColor=#E4FDE1;strokeColor=#028090;fillColor=#F45B69;" parent="1" vertex="1">
          <mxGeometry x="620" y="550" width="100" height="40" as="geometry" />
        </mxCell>
        <mxCell id="i43CFVeRpQ-6sBmuHQsd-86" value="" style="fontSize=12;html=1;endArrow=ERmany;rounded=1;sketch=0;fontColor=#E4FDE1;strokeColor=#028090;fillColor=#F45B69;entryX=0.5;entryY=0;entryDx=0;entryDy=0;exitX=0.5;exitY=1;exitDx=0;exitDy=0;labelBackgroundColor=#114B5F;" parent="1" source="i43CFVeRpQ-6sBmuHQsd-79" target="i43CFVeRpQ-6sBmuHQsd-85" edge="1">
          <mxGeometry width="100" height="100" relative="1" as="geometry">
            <mxPoint x="440" y="620" as="sourcePoint" />
            <mxPoint x="540" y="520" as="targetPoint" />
          </mxGeometry>
        </mxCell>
        <mxCell id="2n3zswuo5XEEiu-ZvMk_-8" style="edgeStyle=none;rounded=1;sketch=0;orthogonalLoop=1;jettySize=auto;html=1;exitX=0.5;exitY=1;exitDx=0;exitDy=0;fontColor=#E4FDE1;strokeColor=#028090;fillColor=#F45B69;" edge="1" parent="1" source="i43CFVeRpQ-6sBmuHQsd-89" target="i43CFVeRpQ-6sBmuHQsd-91">
          <mxGeometry relative="1" as="geometry" />
        </mxCell>
        <mxCell id="2n3zswuo5XEEiu-ZvMk_-9" style="edgeStyle=none;rounded=1;sketch=0;orthogonalLoop=1;jettySize=auto;html=1;exitX=1;exitY=1;exitDx=0;exitDy=0;entryX=0;entryY=0;entryDx=0;entryDy=0;fontColor=#E4FDE1;strokeColor=#028090;fillColor=#F45B69;" edge="1" parent="1" source="i43CFVeRpQ-6sBmuHQsd-89" target="i43CFVeRpQ-6sBmuHQsd-92">
          <mxGeometry relative="1" as="geometry" />
        </mxCell>
        <mxCell id="i43CFVeRpQ-6sBmuHQsd-89" value="schedule" style="ellipse;whiteSpace=wrap;html=1;align=center;rounded=0;sketch=0;fontColor=#E4FDE1;strokeColor=#028090;fillColor=#F45B69;" parent="1" vertex="1">
          <mxGeometry x="620" y="640" width="100" height="40" as="geometry" />
        </mxCell>
        <mxCell id="i43CFVeRpQ-6sBmuHQsd-91" value="day" style="ellipse;whiteSpace=wrap;html=1;align=center;rounded=0;sketch=0;fontColor=#E4FDE1;strokeColor=#028090;fillColor=#F45B69;" parent="1" vertex="1">
          <mxGeometry x="610" y="730" width="100" height="40" as="geometry" />
        </mxCell>
        <mxCell id="i43CFVeRpQ-6sBmuHQsd-92" value="time" style="ellipse;whiteSpace=wrap;html=1;align=center;rounded=0;sketch=0;fontColor=#E4FDE1;strokeColor=#028090;fillColor=#F45B69;" parent="1" vertex="1">
          <mxGeometry x="720" y="700" width="100" height="40" as="geometry" />
        </mxCell>
        <mxCell id="i43CFVeRpQ-6sBmuHQsd-95" value="name" style="ellipse;whiteSpace=wrap;html=1;align=center;rounded=0;sketch=0;fontColor=#E4FDE1;strokeColor=#028090;fillColor=#F45B69;" parent="1" vertex="1">
          <mxGeometry x="730" y="510" width="100" height="40" as="geometry" />
        </mxCell>
        <mxCell id="i43CFVeRpQ-6sBmuHQsd-96" value="couse_ID" style="ellipse;whiteSpace=wrap;html=1;align=center;fontStyle=4;rounded=0;sketch=0;fontColor=#E4FDE1;strokeColor=#028090;fillColor=#F45B69;" parent="1" vertex="1">
          <mxGeometry x="740" y="590" width="100" height="40" as="geometry" />
        </mxCell>
        <mxCell id="2n3zswuo5XEEiu-ZvMk_-2" value="&lt;span style=&quot;border-bottom: 1px dotted&quot;&gt;student_ID&lt;/span&gt;" style="ellipse;whiteSpace=wrap;html=1;align=center;fillColor=#F45B69;strokeColor=#028090;fontColor=#E4FDE1;" vertex="1" parent="1">
          <mxGeometry x="620" y="40" width="100" height="40" as="geometry" />
        </mxCell>
        <mxCell id="2n3zswuo5XEEiu-ZvMk_-4" value="" style="fontSize=12;html=1;endArrow=ERmandOne;rounded=1;sketch=0;fontColor=#E4FDE1;strokeColor=#028090;fillColor=#F45B69;entryX=0.5;entryY=1;entryDx=0;entryDy=0;exitX=0.5;exitY=0;exitDx=0;exitDy=0;" edge="1" parent="1" source="i43CFVeRpQ-6sBmuHQsd-79" target="i43CFVeRpQ-6sBmuHQsd-65">
          <mxGeometry width="100" height="100" relative="1" as="geometry">
            <mxPoint x="370" y="500" as="sourcePoint" />
            <mxPoint x="470" y="400" as="targetPoint" />
          </mxGeometry>
        </mxCell>
        <mxCell id="2n3zswuo5XEEiu-ZvMk_-10" value="takes" style="rhombus;whiteSpace=wrap;html=1;rounded=0;fontColor=#E4FDE1;strokeColor=#028090;fillColor=#F45B69;sketch=0;" vertex="1" parent="1">
          <mxGeometry x="460" y="580" width="80" height="80" as="geometry" />
        </mxCell>
        <mxCell id="2n3zswuo5XEEiu-ZvMk_-12" value="" style="fontSize=12;html=1;endArrow=ERmany;rounded=1;sketch=0;fontColor=#E4FDE1;strokeColor=#028090;fillColor=#F45B69;entryX=0;entryY=0.5;entryDx=0;entryDy=0;exitX=1;exitY=0.5;exitDx=0;exitDy=0;" edge="1" parent="1" source="2n3zswuo5XEEiu-ZvMk_-10" target="i43CFVeRpQ-6sBmuHQsd-85">
          <mxGeometry width="100" height="100" relative="1" as="geometry">
            <mxPoint x="370" y="600" as="sourcePoint" />
            <mxPoint x="470" y="500" as="targetPoint" />
          </mxGeometry>
        </mxCell>
        <mxCell id="2n3zswuo5XEEiu-ZvMk_-13" value="age" style="ellipse;whiteSpace=wrap;html=1;align=center;dashed=1;rounded=0;sketch=0;fontColor=#E4FDE1;strokeColor=#028090;fillColor=#F45B69;" vertex="1" parent="1">
          <mxGeometry x="305" y="560" width="100" height="40" as="geometry" />
        </mxCell>
        <mxCell id="2n3zswuo5XEEiu-ZvMk_-14" value="student_ID" style="ellipse;whiteSpace=wrap;html=1;align=center;fontStyle=4;rounded=0;sketch=0;fontColor=#E4FDE1;strokeColor=#028090;fillColor=#F45B69;" vertex="1" parent="1">
          <mxGeometry x="175" y="560" width="100" height="40" as="geometry" />
        </mxCell>
        <mxCell id="2n3zswuo5XEEiu-ZvMk_-28" style="edgeStyle=none;rounded=1;sketch=0;orthogonalLoop=1;jettySize=auto;html=1;exitX=0.25;exitY=1;exitDx=0;exitDy=0;entryX=0.75;entryY=0.075;entryDx=0;entryDy=0;entryPerimeter=0;fontColor=#E4FDE1;strokeColor=#028090;fillColor=#F45B69;" edge="1" parent="1" source="2n3zswuo5XEEiu-ZvMk_-20" target="2n3zswuo5XEEiu-ZvMk_-24">
          <mxGeometry relative="1" as="geometry" />
        </mxCell>
        <mxCell id="2n3zswuo5XEEiu-ZvMk_-29" style="edgeStyle=none;rounded=1;sketch=0;orthogonalLoop=1;jettySize=auto;html=1;exitX=0;exitY=0.5;exitDx=0;exitDy=0;entryX=1;entryY=0.5;entryDx=0;entryDy=0;fontColor=#E4FDE1;strokeColor=#028090;fillColor=#F45B69;" edge="1" parent="1" source="2n3zswuo5XEEiu-ZvMk_-20" target="2n3zswuo5XEEiu-ZvMk_-21">
          <mxGeometry relative="1" as="geometry" />
        </mxCell>
        <mxCell id="2n3zswuo5XEEiu-ZvMk_-30" style="edgeStyle=none;rounded=1;sketch=0;orthogonalLoop=1;jettySize=auto;html=1;exitX=0.5;exitY=1;exitDx=0;exitDy=0;fontColor=#E4FDE1;strokeColor=#028090;fillColor=#F45B69;" edge="1" parent="1" source="2n3zswuo5XEEiu-ZvMk_-20" target="2n3zswuo5XEEiu-ZvMk_-25">
          <mxGeometry relative="1" as="geometry" />
        </mxCell>
        <mxCell id="2n3zswuo5XEEiu-ZvMk_-31" style="edgeStyle=none;rounded=1;sketch=0;orthogonalLoop=1;jettySize=auto;html=1;exitX=0.25;exitY=0;exitDx=0;exitDy=0;entryX=0.71;entryY=0.95;entryDx=0;entryDy=0;entryPerimeter=0;fontColor=#E4FDE1;strokeColor=#028090;fillColor=#F45B69;" edge="1" parent="1" source="2n3zswuo5XEEiu-ZvMk_-20" target="2n3zswuo5XEEiu-ZvMk_-14">
          <mxGeometry relative="1" as="geometry" />
        </mxCell>
        <mxCell id="2n3zswuo5XEEiu-ZvMk_-32" style="edgeStyle=none;rounded=1;sketch=0;orthogonalLoop=1;jettySize=auto;html=1;exitX=0.5;exitY=0;exitDx=0;exitDy=0;entryX=0.23;entryY=0.975;entryDx=0;entryDy=0;entryPerimeter=0;fontColor=#E4FDE1;strokeColor=#028090;fillColor=#F45B69;" edge="1" parent="1" source="2n3zswuo5XEEiu-ZvMk_-20" target="2n3zswuo5XEEiu-ZvMk_-13">
          <mxGeometry relative="1" as="geometry" />
        </mxCell>
        <mxCell id="2n3zswuo5XEEiu-ZvMk_-20" value="student" style="whiteSpace=wrap;html=1;align=center;rounded=0;sketch=0;fontColor=#E4FDE1;strokeColor=#028090;fillColor=#F45B69;" vertex="1" parent="1">
          <mxGeometry x="255" y="630" width="100" height="40" as="geometry" />
        </mxCell>
        <mxCell id="2n3zswuo5XEEiu-ZvMk_-21" value="birth_date" style="ellipse;whiteSpace=wrap;html=1;align=center;rounded=0;sketch=0;fontColor=#E4FDE1;strokeColor=#028090;fillColor=#F45B69;" vertex="1" parent="1">
          <mxGeometry x="120" y="630" width="100" height="40" as="geometry" />
        </mxCell>
        <mxCell id="2n3zswuo5XEEiu-ZvMk_-22" style="edgeStyle=none;rounded=1;sketch=0;orthogonalLoop=1;jettySize=auto;html=1;exitX=0;exitY=1;exitDx=0;exitDy=0;fontColor=#E4FDE1;strokeColor=#028090;fillColor=#F45B69;labelBackgroundColor=#114B5F;" edge="1" parent="1" source="2n3zswuo5XEEiu-ZvMk_-24" target="2n3zswuo5XEEiu-ZvMk_-26">
          <mxGeometry relative="1" as="geometry" />
        </mxCell>
        <mxCell id="2n3zswuo5XEEiu-ZvMk_-23" style="edgeStyle=none;rounded=1;sketch=0;orthogonalLoop=1;jettySize=auto;html=1;exitX=1;exitY=1;exitDx=0;exitDy=0;fontColor=#E4FDE1;strokeColor=#028090;fillColor=#F45B69;labelBackgroundColor=#114B5F;" edge="1" parent="1" source="2n3zswuo5XEEiu-ZvMk_-24" target="2n3zswuo5XEEiu-ZvMk_-27">
          <mxGeometry relative="1" as="geometry" />
        </mxCell>
        <mxCell id="2n3zswuo5XEEiu-ZvMk_-24" value="name" style="ellipse;whiteSpace=wrap;html=1;align=center;rounded=0;sketch=0;fontColor=#E4FDE1;strokeColor=#028090;fillColor=#F45B69;" vertex="1" parent="1">
          <mxGeometry x="175" y="700" width="100" height="40" as="geometry" />
        </mxCell>
        <mxCell id="2n3zswuo5XEEiu-ZvMk_-25" value="phone_number" style="ellipse;shape=doubleEllipse;margin=3;whiteSpace=wrap;html=1;align=center;rounded=0;sketch=0;fontColor=#E4FDE1;strokeColor=#028090;fillColor=#F45B69;" vertex="1" parent="1">
          <mxGeometry x="325" y="700" width="100" height="40" as="geometry" />
        </mxCell>
        <mxCell id="2n3zswuo5XEEiu-ZvMk_-26" value="last_name" style="ellipse;whiteSpace=wrap;html=1;align=center;rounded=0;sketch=0;fontColor=#E4FDE1;strokeColor=#028090;fillColor=#F45B69;" vertex="1" parent="1">
          <mxGeometry x="95" y="750" width="100" height="40" as="geometry" />
        </mxCell>
        <mxCell id="2n3zswuo5XEEiu-ZvMk_-27" value="first_name" style="ellipse;whiteSpace=wrap;html=1;align=center;rounded=0;sketch=0;fontColor=#E4FDE1;strokeColor=#028090;fillColor=#F45B69;" vertex="1" parent="1">
          <mxGeometry x="225" y="760" width="100" height="40" as="geometry" />
        </mxCell>
        <mxCell id="2n3zswuo5XEEiu-ZvMk_-33" value="" style="fontSize=12;html=1;endArrow=ERmany;rounded=1;sketch=0;fontColor=#E4FDE1;strokeColor=#028090;fillColor=#F45B69;entryX=1;entryY=0.5;entryDx=0;entryDy=0;exitX=0;exitY=0.5;exitDx=0;exitDy=0;" edge="1" parent="1" source="2n3zswuo5XEEiu-ZvMk_-10" target="2n3zswuo5XEEiu-ZvMk_-20">
          <mxGeometry width="100" height="100" relative="1" as="geometry">
            <mxPoint x="370" y="730" as="sourcePoint" />
            <mxPoint x="470" y="630" as="targetPoint" />
          </mxGeometry>
        </mxCell>
        <mxCell id="2n3zswuo5XEEiu-ZvMk_-34" value="&lt;span style=&quot;border-bottom: 1px dotted&quot;&gt;student_ID&lt;/span&gt;" style="ellipse;whiteSpace=wrap;html=1;align=center;rounded=0;sketch=0;fontColor=#E4FDE1;strokeColor=#028090;fillColor=#F45B69;" vertex="1" parent="1">
          <mxGeometry x="500" y="500" width="100" height="40" as="geometry" />
        </mxCell>
      </root>
    </mxGraphModel>
  </diagram>
</mxfile>
